# xmcd
#
# Track frame offsets:
#	150
#	27221
#	46716
#	68088
#	91913
#	114153
#	141613
#	162842
#	190181
#	211760
#	243670
#	262046
#
# Disc length: 3847 seconds
#
# Revision: 2
# Processed by: cddbd v1.5.2PL0 Copyright (c) Steve Scherf et al.
# Submitted via: audiograbber 1.83.01
#
DISCID=a10f050c
DTITLE=SPECIAL DREAMS - VOLUME 2
DYEAR=1900
DGENRE=R&B
TTITLE0=GLORIA GAYNOR - THE ORIGINAL S.A.W (SOFTLY ME TONIGHT)
TTITLE1=ISLEY JASPER ISLEY - CARAVAN OF LOVE
TTITLE2=MC HAMMER - HAVE YOU SEE HER
TTITLE3=CON FUNK SHUN - LOVES TRAIN
TTITLE4=BLOOD STONE - WE GO A LONG WAY BACK
TTITLE5=THE HUMAN BODY - I BELIEVE WE CAN
TTITLE6=ENCHANTMENT - DONT FIGHT THE FEELING
TTITLE7=NEW HORIZONS - I CAN'T TELL ME
TTITLE8=STEVE ARRINGTON'S - SUGAR MOMMA BABY
TTITLE9=FREDIE JACKSON - REMIX - ROCK ME TONITE
TTITLE10=ZAPP - SPEND MY WHOLE LIFE
TTITLE11=DISCK SMITH - BY THE TIME I GET TO PHOENIX
EXTD=
EXTT0=
EXTT1=
EXTT2=
EXTT3=
EXTT4=
EXTT5=
EXTT6=
EXTT7=
EXTT8=
EXTT9=
EXTT10=
EXTT11=
PLAYORDER=
